<?xml version="1.0" standalone="no"?>
<!DOCTYPE svg PUBLIC "-//W3C//DTD SVG 20010904//EN"
 "http://www.w3.org/TR/2001/REC-SVG-20010904/DTD/svg10.dtd">
<svg version="1.0" xmlns="http://www.w3.org/2000/svg"
 width="700.000000pt" height="700.000000pt" viewBox="0 0 700.000000 700.000000"
 preserveAspectRatio="xMidYMid meet">
<metadata>
Created by potrace 1.14, written by Peter Selinger 2001-2017
</metadata>
<g transform="translate(0.000000,700.000000) scale(0.100000,-0.100000)"
fill="#000000" stroke="none">
<path d="M0 3500 l0 -3500 3500 0 3500 0 0 3500 0 3500 -3500 0 -3500 0 0
-3500z m4617 513 c-4 -1736 -1 -1641 -62 -1872 -28 -103 -93 -251 -146 -328
-48 -70 -145 -169 -214 -218 -184 -131 -397 -188 -700 -189 -183 0 -280 14
-427 60 -251 79 -501 261 -645 469 l-41 60 86 97 c48 53 90 97 93 97 3 1 29
-29 57 -66 138 -185 336 -334 526 -398 194 -64 462 -69 645 -13 233 72 382
222 460 463 69 212 65 117 68 1713 l4 1442 -771 0 -770 0 0 135 0 135 920 0
921 0 -4 -1587z"/>
</g>
</svg>
